<svg width="22" height="22" viewBox="0 0 22 22" fill="none" xmlns="http://www.w3.org/2000/svg">
<path id="Union" fill-rule="evenodd" clip-rule="evenodd" d="M20.4506 10.912C20.1822 10.1734 19.7896 9.3835 19.283 8.57636L18.4119 10.8344C18.5048 11.0058 18.5926 11.1762 18.6751 11.3454C19.3162 12.6594 19.6548 13.9266 19.598 14.99C19.8981 14.8983 20.1438 14.7543 20.3321 14.5663C20.9567 13.9427 21.0963 12.6886 20.4506 10.912ZM20.8301 14.9204C22.0655 13.5661 21.4746 10.7652 19.5521 7.87868L21.2586 3.45498L21.3304 3.26891L21.1893 3.1279L18.9326 0.873127L18.599 0.539779L18.5947 0.550843L18.5905 0.546661L18.4031 0.620951L13.9932 2.36829C11.0983 0.480646 8.30803 -0.0651271 6.9943 1.22806L6.98633 1.22011L5.04298 3.16044C4.32299 3.88148 4.13676 4.96672 4.33853 6.19374L0.956461 7.53382L0.522461 7.70579L0.852595 8.03564L3.10926 10.2904L3.25188 10.4329L3.43937 10.3586L5.60293 9.50136C6.33675 10.7887 7.35209 12.1173 8.59936 13.3626C9.85496 14.6162 11.1951 15.6351 12.4926 16.3689L11.6464 18.5625L11.5746 18.7485L11.7157 18.8896L13.9724 21.1443L14.306 21.4777L14.4757 21.0378L15.7946 17.619C17.0185 17.8167 18.1004 17.6289 18.8197 16.9115L18.8205 16.9107L20.8374 14.9278L20.8301 14.9204ZM20.6094 3.43287L16.3209 14.5496C15.6634 14.2826 14.9709 13.9228 14.266 13.4769L18.828 1.65115L18.9477 1.77072L18.9475 1.77092L20.6094 3.43287ZM14.6043 2.7858L18.297 1.32265L17.1634 4.26106L16.9148 4.3596L16.6439 4.46691C15.9756 3.83803 15.2898 3.27548 14.6043 2.7858ZM16.6639 5.3285L16.7272 5.39192L15.946 7.41693C15.7281 7.17755 15.5016 6.94025 15.2668 6.70586C13.7905 5.23189 12.1989 4.08399 10.6988 3.34173C9.36258 2.6806 8.07328 2.32888 6.99276 2.38041C7.08489 2.08925 7.22699 1.85025 7.41135 1.66619C8.03593 1.04261 9.29208 0.903214 11.0715 1.54789C12.8003 2.17422 14.81 3.4775 16.6639 5.3285ZM13.7418 13.1308L15.7016 8.05043C15.429 7.7414 15.1411 7.435 14.8388 7.13315C14.5196 6.81448 14.1954 6.51197 13.8683 6.22637L8.83242 8.22174C9.44985 9.11987 10.2034 10.0293 11.0795 10.904C11.9477 11.7708 12.8501 12.5175 13.7418 13.1308ZM18.9832 15.0982C18.4121 15.1363 17.7127 15.0349 16.8965 14.7627L18.1207 11.5891L18.131 11.6101C18.7834 12.9474 19.0717 14.1602 18.9832 15.0982ZM12.2908 18.597L13.0375 16.6616C13.4816 16.8874 13.9184 17.0783 14.3427 17.232C14.6273 17.3351 14.909 17.4224 15.1857 17.4923L14.0728 20.3774L12.2908 18.597ZM8.48738 7.69878L13.3354 5.77784C12.5666 5.15455 11.7892 4.62571 11.0322 4.20117L7.41346 5.63504C7.67933 6.29482 8.03958 6.99042 8.48738 7.69878ZM7.20224 5.05906L10.3135 3.82628C9.00105 3.1941 7.80828 2.9116 6.87997 2.99361C6.83879 3.55873 6.9359 4.25093 7.20224 5.05906ZM4.46708 6.80248L1.6167 7.93189L3.40062 9.71431L5.30875 8.95825C5.07656 8.50568 4.88082 8.06054 4.72377 7.62845C4.62247 7.34974 4.53643 7.07369 4.46708 6.80248ZM10.6516 11.3313C13.61 14.2849 17.0046 15.9333 19.2043 15.6853L18.3942 16.4817L18.3934 16.4826L18.3926 16.4834C17.6634 17.2114 16.2965 17.297 14.5492 16.664C12.8272 16.0401 10.8461 14.7511 9.02734 12.9353C7.20862 11.1195 5.91758 9.14152 5.29272 7.42232C4.65867 5.67784 4.74439 4.31304 5.47355 3.58505L6.29358 2.76633C6.02923 4.96173 7.68152 8.36599 10.6516 11.3313Z" fill="white"/>
</svg>
