<svg width="20" height="20" viewBox="0 0 20 20" fill="none" xmlns="http://www.w3.org/2000/svg">
<g opacity="0.5">
<path d="M11.3333 7.33333H2.66667C2.48986 7.33333 2.32029 7.2631 2.19526 7.13807C2.07024 7.01305 2 6.84348 2 6.66667C2 6.48986 2.07024 6.32029 2.19526 6.19526C2.32029 6.07024 2.48986 6 2.66667 6H11.3333C11.5101 6 11.6797 6.07024 11.8047 6.19526C11.9298 6.32029 12 6.48986 12 6.66667C12 6.84348 11.9298 7.01305 11.8047 7.13807C11.6797 7.2631 11.5101 7.33333 11.3333 7.33333ZM17.3333 7.33333H14.6667C14.4899 7.33333 14.3203 7.2631 14.1953 7.13807C14.0702 7.01305 14 6.84348 14 6.66667C14 6.48986 14.0702 6.32029 14.1953 6.19526C14.3203 6.07024 14.4899 6 14.6667 6H17.3333C17.5101 6 17.6797 6.07024 17.8047 6.19526C17.9298 6.32029 18 6.48986 18 6.66667C18 6.84348 17.9298 7.01305 17.8047 7.13807C17.6797 7.2631 17.5101 7.33333 17.3333 7.33333Z" fill="#C4A9F3"/>
<path d="M13 9.00004C12.5385 9.00004 12.0874 8.86319 11.7037 8.6068C11.32 8.35041 11.0209 7.986 10.8443 7.55964C10.6677 7.13328 10.6215 6.66412 10.7115 6.2115C10.8015 5.75887 11.0238 5.34312 11.3501 5.01679C11.6764 4.69047 12.0922 4.46824 12.5448 4.37821C12.9974 4.28818 13.4666 4.33439 13.8929 4.51099C14.3193 4.68759 14.6837 4.98666 14.9401 5.37038C15.1965 5.75409 15.3333 6.20522 15.3333 6.66671C15.3333 7.28555 15.0875 7.87904 14.6499 8.31662C14.2123 8.75421 13.6188 9.00004 13 9.00004ZM13 5.66671C12.8022 5.66671 12.6089 5.72536 12.4444 5.83524C12.28 5.94512 12.1518 6.1013 12.0761 6.28402C12.0004 6.46675 11.9806 6.66782 12.0192 6.8618C12.0578 7.05578 12.153 7.23396 12.2929 7.37382C12.4327 7.51367 12.6109 7.60891 12.8049 7.64749C12.9989 7.68608 13.2 7.66628 13.3827 7.59059C13.5654 7.5149 13.7216 7.38673 13.8315 7.22228C13.9414 7.05783 14 6.86449 14 6.66671C14 6.40149 13.8946 6.14714 13.7071 5.9596C13.5196 5.77206 13.2652 5.66671 13 5.66671ZM17.3333 14H8.66667C8.48986 14 8.32029 13.9298 8.19526 13.8048C8.07024 13.6798 8 13.5102 8 13.3334C8 13.1566 8.07024 12.987 8.19526 12.862C8.32029 12.7369 8.48986 12.6667 8.66667 12.6667H17.3333C17.5101 12.6667 17.6797 12.7369 17.8047 12.862C17.9298 12.987 18 13.1566 18 13.3334C18 13.5102 17.9298 13.6798 17.8047 13.8048C17.6797 13.9298 17.5101 14 17.3333 14ZM5.33333 14H2.66667C2.48986 14 2.32029 13.9298 2.19526 13.8048C2.07024 13.6798 2 13.5102 2 13.3334C2 13.1566 2.07024 12.987 2.19526 12.862C2.32029 12.7369 2.48986 12.6667 2.66667 12.6667H5.33333C5.51014 12.6667 5.67971 12.7369 5.80474 12.862C5.92976 12.987 6 13.1566 6 13.3334C6 13.5102 5.92976 13.6798 5.80474 13.8048C5.67971 13.9298 5.51014 14 5.33333 14Z" fill="#C4A9F3"/>
<path d="M6.99984 15.6667C6.53835 15.6667 6.08722 15.5298 5.70351 15.2734C5.31979 15.017 5.02072 14.6526 4.84412 14.2263C4.66751 13.7999 4.62131 13.3307 4.71134 12.8781C4.80137 12.4255 5.0236 12.0097 5.34992 11.6834C5.67624 11.3571 6.092 11.1349 6.54463 11.0448C6.99725 10.9548 7.4664 11.001 7.89277 11.1776C8.31913 11.3542 8.68354 11.6533 8.93993 12.037C9.19632 12.4207 9.33317 12.8718 9.33317 13.3333C9.33317 13.9522 9.08734 14.5457 8.64975 14.9833C8.21217 15.4208 7.61868 15.6667 6.99984 15.6667ZM6.99984 12.3333C6.80206 12.3333 6.60872 12.392 6.44427 12.5019C6.27982 12.6117 6.15165 12.7679 6.07596 12.9507C6.00027 13.1334 5.98047 13.3344 6.01905 13.5284C6.05764 13.7224 6.15288 13.9006 6.29273 14.0404C6.43258 14.1803 6.61077 14.2755 6.80475 14.3141C6.99873 14.3527 7.1998 14.3329 7.38252 14.2572C7.56525 14.1815 7.72143 14.0534 7.83131 13.8889C7.94119 13.7245 7.99984 13.5311 7.99984 13.3333C7.99984 13.0681 7.89448 12.8138 7.70694 12.6262C7.51941 12.4387 7.26505 12.3333 6.99984 12.3333Z" fill="#C4A9F3"/>
</g>
</svg>
