<svg fill="none" height="46" viewBox="0 0 46 46" width="46" xmlns="http://www.w3.org/2000/svg" xmlns:xlink="http://www.w3.org/1999/xlink"><linearGradient id="a"><stop offset="0" stop-color="#bbdff1"/><stop offset="1" stop-color="#c4a9f3"/></linearGradient><linearGradient id="b" gradientUnits="userSpaceOnUse" x1="20.5" x2="20.5" xlink:href="#a" y1="14.5" y2="30.5"/><linearGradient id="c" gradientUnits="userSpaceOnUse" x1="32.5" x2="32.5" xlink:href="#a" y1="22.5" y2="31.5"/><path clip-rule="evenodd" d="m8.5 15.5c0-.5523.44772-1 1-1h22c.5523 0 1 .4477 1 1s-.4477 1-1 1h-22c-.55228 0-1-.4477-1-1zm0 7c0-.5523.44772-1 1-1h15c.5523 0 1 .4477 1 1s-.4477 1-1 1h-15c-.55228 0-1-.4477-1-1zm1 6c-.55228 0-1 .4477-1 1s.44772 1 1 1h11c.5523 0 1-.4477 1-1s-.4477-1-1-1z" fill="url(#b)" fill-rule="evenodd"/><path d="m32.4991 22.5 1.2708 2.434c.085.1618.2103.3018.365.408.1548.1062.3344.1754.5236.2018l2.8415.3955-2.057 1.9002c-.1368.1262-.2391.282-.298.4538-.059.1718-.0728.3546-.0403.5326l.4845 2.6741-2.5416-1.2628c-.1691-.0842-.3573-.1283-.5485-.1283s-.3795.0441-.5486.1283l-2.5434 1.2628.4882-2.6862c.0326-.1781.0186-.3611-.0407-.533-.0592-.1719-.162-.3275-.2994-.4534l-2.0552-1.9001 2.8415-.3904c.1892-.0264.3689-.0956.5236-.2018s.28-.2462.365-.408z" fill="url(#c)"/></svg>