<svg fill="none" height="24" viewBox="0 0 25 24" width="25" xmlns="http://www.w3.org/2000/svg"><path d="m14.8766 2.67202c-.289-.5079-.7074-.93021-1.2125-1.22398-.5052-.29377-1.0791-.448528-1.6635-.448528s-1.1583.154758-1.6635.448528c-.50514.29377-.92349.71608-1.21249 1.22398l-8.710004 15.51798c-.276582.487-.41956719 1.0384-.41447457 1.5984.00509263.56.15808157 1.1088.44347457 1.5906.289584.4972.705424.9089 1.205394 1.1936s1.0663.4321 1.64161.4274h17.41999c.5753.0047 1.1416-.1427 1.6416-.4274s.9158-.6964 1.2054-1.1936c.2854-.4818.4384-1.0306.4435-1.5906s-.1379-1.1114-.4145-1.5984zm-2.876 16.32798c-.1978 0-.3911-.0586-.5556-.1685-.1644-.1099-.2926-.2661-.3683-.4488s-.0955-.3838-.0569-.5778.1338-.3721.2737-.512c.1399-.1398.318-.2351.512-.2737s.3951-.0187.5778.0569c.1827.0757.3389.2039.4488.3684.1099.1644.1685.3577.1685.5555 0 .2652-.1054.5196-.2929.7071-.1875.1876-.4419.2929-.7071.2929zm1-5c0 .2652-.1054.5196-.2929.7071-.1875.1876-.4419.2929-.7071.2929s-.5196-.1053-.7071-.2929c-.1875-.1875-.2929-.4419-.2929-.7071v-5.99998c0-.26522.1054-.51957.2929-.70711.1875-.18753.4419-.29289.7071-.29289s.5196.10536.7071.29289c.1875.18754.2929.44189.2929.70711z" fill="#fff"/></svg>